<svg width="27" height="27" viewBox="0 0 27 27" fill="none" xmlns="http://www.w3.org/2000/svg">
<path d="M10.3809 23.186V19.7644C10.3809 18.8974 11.086 18.1929 11.9593 18.1875H15.1659C16.0431 18.1875 16.7542 18.8935 16.7542 19.7644V23.1761C16.7542 23.9281 17.3653 24.5393 18.1228 24.5448H20.3105C21.3322 24.5473 22.313 24.1462 23.0364 23.4299C23.7598 22.7135 24.1664 21.7408 24.1664 20.7264V11.0071C24.1664 10.1877 23.8005 9.41043 23.1674 8.88472L15.7353 2.9837C14.4361 1.95155 12.5806 1.98489 11.3199 3.06304L4.04761 8.88472C3.3846 9.39493 2.98833 10.1745 2.96875 11.0071V20.7165C2.96875 22.8308 4.69511 24.5448 6.82468 24.5448H8.96243C9.32712 24.5474 9.67779 24.4054 9.93661 24.1503C10.1954 23.8952 10.341 23.5481 10.341 23.186H10.3809Z" fill="#AAD3DF"/>
</svg>
